# File created by Blade
# Date/Time:  Tue Sep 30 19:07:19 2014
#---------------------------------------------------------
:version 1.10
:name HOM
:units
  mass 1.0
  length 1.000000
  angle deg
:documentation
     Acclaim Skeleton File
:root
   axis xyz
   order TX TY TZ RX RY RZ
   position 0.000000 0.000000 0.000000
   orientation 0 0 0
:bonedata
   begin
      id 1
      name Spine_dum
      direction 0.000000 1.000000 0.000000
      length 7.508948
      axis 0.0 0.0 0.0 xyz
   end
   begin
      id 2
      name LeftUpLeg_dum
      direction 1.000000 0.000000 0.000000
      length 3.000560
      axis 0.0 0.0 0.0 xyz
   end
   begin
      id 3
      name RightUpLeg_dum
      direction -1.000000 0.000000 0.000000
      length 3.000560
      axis 0.0 0.0 0.0 xyz
   end
   begin
      id 4
      name Spine
      direction 0.000000 1.000000 0.000000
      length 0.000000
      axis 0.0 0.0 0.0 xyz
      dof rx ry rz
   end
   begin
      id 5
      name Spine_dum1
      direction 0.000000 1.000000 0.000000
      length 13.861154
      axis 0.0 0.0 0.0 xyz
   end
   begin
      id 6
      name Spine_dum2
      direction 0.000000 1.000000 0.000000
      length 8.204781
      axis 0.0 0.0 0.0 xyz
   end
   begin
      id 7
      name Spine_dum3
      direction 0.000000 1.000000 0.000000
      length 8.204781
      axis 0.0 0.0 0.0 xyz
   end
   begin
      id 8
      name Head
      direction 0.000000 1.000000 0.000000
      length 4.527550
      axis 0.0 0.0 0.0 xyz
      dof rx ry rz
   end
   begin
      id 9
      name LeftShoulder
      direction 1.000000 0.000000 0.000000
      length 6.635956
      axis 0.0 0.0 -90.0 xyz
      dof rx ry rz
   end
   begin
      id 10
      name LeftArm
      direction 1.000000 0.000000 0.000000
      length 10.274218
      axis 0.0 0.0 -90.0 xyz
      dof rx ry rz
   end
   begin
      id 11
      name LeftForeArm
      direction 1.000000 0.000000 0.000000
      length 8.522147
      axis 0.0 0.0 -90.0 xyz
      dof ry rz rx
   end
   begin
      id 12
      name LeftHand
      direction 0.000000 0.000000 0.000000
      length 0.000000
      axis 0.0 0.0 -90.0 xyz
      dof rx ry rz
   end
   begin
      id 13
      name LeftHand_dum1
      direction 0.000000 0.000000 0.000000
      length 0.000000
      axis 0.0 0.0 -90.0 xyz
   end
   begin
      id 14
      name LeftHand_dum2
      direction 1.000000 0.000000 0.000000
      length 3.937000
      axis 0.0 0.0 -90.0 xyz
   end
   begin
      id 15
      name LeftHandThumb1
      direction 0.000000 0.000000 1.000000
      length 3.937000
      axis 0.0 0.0 -90.0 xyz
      dof rx rz ry
   end
   begin
      id 16
      name RightShoulder
      direction -1.000000 0.000000 0.000000
      length 6.635956
      axis 0.0 0.0 90.0 xyz
      dof rx ry rz
   end
   begin
      id 17
      name RightArm
      direction -1.000000 0.000000 0.000000
      length 10.274218
      axis 0.0 0.0 90.0 xyz
      dof rx ry rz
   end
   begin
      id 18
      name RightForeArm
      direction -1.000000 0.000000 0.000000
      length 8.522147
      axis 0.0 0.0 90.0 xyz
      dof ry rz rx
   end
   begin
      id 19
      name RightHand
      direction 0.000000 0.000000 0.000000
      length 0.000000
      axis 0.0 0.0 90.0 xyz
      dof rx ry rz
   end
   begin
      id 20
      name RightHand_dum1
      direction 0.000000 0.000000 0.000000
      length 0.000000
      axis 0.0 0.0 90.0 xyz
   end
   begin
      id 21
      name RightHand_dum2
      direction -1.000000 0.000000 0.000000
      length 3.937000
      axis 0.0 0.0 90.0 xyz
   end
   begin
      id 22
      name RightHandThumb1
      direction 0.000000 0.000000 1.000000
      length 3.937000
      axis 0.0 0.0 90.0 xyz
      dof rx rz ry
   end
   begin
      id 23
      name LeftUpLeg
      direction 0.000000 -1.000000 0.000000
      length 16.490845
      axis 0.0 0.0 0.0 xyz
      dof rx ry rz
   end
   begin
      id 24
      name LeftLeg
      direction 0.000000 -1.000000 0.000000
      length 14.556576
      axis 0.0 0.0 0.0 xyz
      dof rx ry rz
   end
   begin
      id 25
      name LeftFoot
      direction 0.000000 -0.258819 0.965926
      length 4.831116
      axis 15.0 0.0 0.0 xyz
      dof rx ry rz
   end
   begin
      id 26
      name LeftToeBase
      direction 0.000000 0.000000 1.000000
      length 2.952750
      axis 0.0 0.0 0.0 xyz
      dof rx ry rz
   end
   begin
      id 27
      name RightUpLeg
      direction 0.000000 -1.000000 0.000000
      length 16.490845
      axis 0.0 0.0 0.0 xyz
      dof rx ry rz
   end
   begin
      id 28
      name RightLeg
      direction 0.000000 -1.000000 0.000000
      length 14.556576
      axis 0.0 0.0 0.0 xyz
      dof rx ry rz
   end
   begin
      id 29
      name RightFoot
      direction 0.000000 -0.258819 0.965926
      length 4.831116
      axis 15.0 0.0 0.0 xyz
      dof rx ry rz
   end
   begin
      id 30
      name RightToeBase
      direction 0.000000 0.000000 1.000000
      length 2.952750
      axis 0.0 0.0 0.0 xyz
      dof rx ry rz
   end
:hierarchy
   begin
      root Spine_dum LeftUpLeg_dum RightUpLeg_dum
      Spine_dum Spine
      LeftUpLeg_dum LeftUpLeg
      RightUpLeg_dum RightUpLeg
      Spine Spine_dum1 Spine_dum2 Spine_dum3
      Spine_dum1 Head
      Spine_dum2 LeftShoulder
      Spine_dum3 RightShoulder
      LeftShoulder LeftArm
      LeftArm LeftForeArm
      LeftForeArm LeftHand
      LeftHand LeftHand_dum1 LeftHand_dum2
      LeftHand_dum1 LeftHandThumb1
      RightShoulder RightArm
      RightArm RightForeArm
      RightForeArm RightHand
      RightHand RightHand_dum1 RightHand_dum2
      RightHand_dum1 RightHandThumb1
      LeftUpLeg LeftLeg
      LeftLeg LeftFoot
      LeftFoot LeftToeBase
      RightUpLeg RightLeg
      RightLeg RightFoot
      RightFoot RightToeBase
   end

# File created by Blade
# Date/Time:  Thu Sep 25 19:32:06 2014
# Frame Rate: 120.000 fps
#------------------------------------------------------
:FULLY-SPECIFIED
:DEGREES
466
root -10.169006 32.296605 -7.189539 1.257793 9.419571 0.166406
Spine -10.921301 0.704536 -44.837932
Head -2.719775 14.521147 -38.334427
LeftShoulder -5.674015 23.965042 7.110775
LeftArm 12.871206 39.190655 -51.843865
LeftForeArm 21.733241 -0.000000 7.965965
LeftHand -29.691919 -0.000000 -1.285941
LeftHandThumb1 -26.253704 0.000000 33.147579
RightShoulder -21.193687 26.283972 -56.072779
RightArm 39.706796 41.200990 26.310260
RightForeArm 28.251048 -0.000000 35.637549
RightHand 6.287390 -0.000000 3.589406
RightHandThumb1 -24.326973 -0.000000 -32.862282
LeftUpLeg 13.315500 -6.689864 -6.431680
LeftLeg -2.090817 -0.000000 0.000000
LeftFoot -16.515497 6.041813 -13.545631
LeftToeBase 5.390870 -0.000000 -0.000000
RightUpLeg -2.404891 -9.255307 16.139310
RightLeg 12.557654 -0.000000 -0.000000
RightFoot -9.658843 -0.036808 -1.686068
RightToeBase -10.635769 -0.000000 0.000000
467
root -10.166019 32.295397 -7.190861 1.227558 9.388942 0.166075
Spine -10.924949 0.695278 -44.845591
Head -2.650178 14.585728 -38.347082
LeftShoulder -5.613319 24.012307 7.108077
LeftArm 12.820617 39.195629 -51.872592
LeftForeArm 21.715806 -0.000000 7.936597
LeftHand -29.698623 -0.000000 -1.345890
LeftHandThumb1 -26.253704 0.000000 33.147579
RightShoulder -21.149279 26.302946 -56.019145
RightArm 39.640423 41.165350 26.222153
RightForeArm 28.232929 0.000000 35.584925
RightHand 6.284762 -0.000000 3.610329
RightHandThumb1 -24.326973 -0.000000 -32.862282
LeftUpLeg 13.349809 -6.660699 -6.435428
LeftLeg -2.120153 -0.000000 0.000000
LeftFoot -16.523991 6.049118 -13.484601
LeftToeBase 5.454018 -0.000000 -0.000000
RightUpLeg -2.374432 -9.333407 16.138861
RightLeg 12.581835 -0.000000 -0.000000
RightFoot -9.724242 -0.048614 -1.816610
RightToeBase -10.417077 -0.000000 0.000000
468
root -10.164575 32.295094 -7.192046 1.214076 9.366033 0.174463
Spine -10.928115 0.682588 -44.855742
Head -2.629697 14.649486 -38.404954
LeftShoulder -5.617467 23.935450 7.078652
LeftArm 12.750291 39.352106 -51.854578
LeftForeArm 21.575398 -0.000000 7.903530
LeftHand -29.648452 -0.000000 -1.529767
LeftHandThumb1 -26.253704 0.000000 33.147579
RightShoulder -21.167465 26.302824 -56.042629
RightArm 39.609247 41.125795 26.237116
RightForeArm 28.162136 -0.000000 35.544629
RightHand 6.240644 -0.000000 3.632112
RightHandThumb1 -24.326973 -0.000000 -32.862282
LeftUpLeg 13.368566 -6.680945 -6.458536
LeftLeg -2.111280 -0.000000 0.000000
LeftFoot -16.520594 6.065661 -13.579503
LeftToeBase 5.323612 -0.000000 -0.000000
RightUpLeg -2.357405 -9.370042 16.127841
RightLeg 12.590833 -0.000000 -0.000000
RightFoot -9.757525 -0.027483 -1.882071
RightToeBase -10.289088 -0.000000 0.000000
469
root -10.164123 32.295270 -7.192445 1.193596 9.329547 0.170148
Spine -10.941324 0.664069 -44.858324
Head -2.610263 14.711675 -38.459319
LeftShoulder -5.612040 23.895225 7.052610
LeftArm 12.659745 39.451354 -51.865343
LeftForeArm 21.514234 -0.000000 7.901569
LeftHand -29.669924 -0.000000 -1.691967
LeftHandThumb1 -26.253704 0.000000 33.147579
RightShoulder -21.172323 26.320528 -56.038747
RightArm 39.560938 41.053786 26.202602
RightForeArm 28.220420 -0.000000 35.505730
RightHand 6.211404 -0.000000 3.582313
RightHandThumb1 -24.326973 -0.000000 -32.862282
LeftUpLeg 13.391766 -6.660067 -6.459385
LeftLeg -2.114712 -0.000000 0.000000
LeftFoot -16.527112 6.060905 -13.606430
LeftToeBase 5.432694 -0.000000 -0.000000
RightUpLeg -2.325893 -9.382058 16.121048
RightLeg 12.583513 -0.000000 -0.000000
RightFoot -9.760537 0.011518 -1.886499
RightToeBase -10.344823 -0.000000 0.000000
470
root -10.163697 32.295301 -7.192266 1.175936 9.288627 0.165790
Spine -10.965682 0.655436 -44.866687
Head -2.570983 14.763387 -38.504034
LeftShoulder -5.607159 23.898747 7.038665
LeftArm 12.611877 39.481381 -51.875374
LeftForeArm 21.494434 -0.000000 7.886538
LeftHand -29.633904 -0.000000 -1.722138
LeftHandThumb1 -26.253704 0.000000 33.147579
RightShoulder -21.174342 26.328824 -56.034649
RightArm 39.531212 41.010266 26.201099
RightForeArm 28.213924 -0.000000 35.454152
RightHand 6.212977 0.000000 3.627725
RightHandThumb1 -24.326973 -0.000000 -32.862282
LeftUpLeg 13.413696 -6.652702 -6.462052
LeftLeg -2.120728 -0.000000 0.000000
LeftFoot -16.531516 6.071876 -13.641322
LeftToeBase 5.400896 -0.000000 -0.000000
RightUpLeg -2.299629 -9.408384 16.114982
RightLeg 12.582759 -0.000000 -0.000000
RightFoot -9.755907 0.086147 -1.890386
RightToeBase -10.339462 -0.000000 0.000000
471
root -10.163052 32.295428 -7.190781 1.143356 9.237193 0.165687
Spine -10.992165 0.644692 -44.883084
Head -2.521822 14.835561 -38.530461
LeftShoulder -5.616425 23.890656 7.039230
LeftArm 12.539430 39.477612 -51.928901
LeftForeArm 21.509725 -0.000000 7.872646
LeftHand -29.638922 -0.000000 -1.682502
LeftHandThumb1 -26.253704 0.000000 33.147579
RightShoulder -21.143675 26.347988 -55.993317
RightArm 39.480991 40.963375 26.146495
RightForeArm 28.243674 -0.000000 35.406506
RightHand 6.202653 -0.000000 3.612451
RightHandThumb1 -24.326973 -0.000000 -32.862282
LeftUpLeg 13.454616 -6.645132 -6.474071
LeftLeg -2.129217 -0.000000 0.000000
LeftFoot -16.540339 6.114397 -13.632386
LeftToeBase 5.403015 -0.000000 -0.000000
RightUpLeg -2.251937 -9.407194 16.099963
RightLeg 12.578640 -0.000000 -0.000000
RightFoot -9.838348 0.087067 -2.026721
RightToeBase -9.966413 -0.000000 0.000000
472
root -10.164409 32.294550 -7.190653 1.127999 9.195610 0.162237
Spine -11.022093 0.643755 -44.897289
Head -2.463860 14.874775 -38.573869
LeftShoulder -5.622892 23.861844 7.050707
LeftArm 12.485413 39.520594 -51.959923
LeftForeArm 21.464829 -0.000000 7.883885
LeftHand -29.669048 -0.000000 -1.692541
LeftHandThumb1 -26.253704 0.000000 33.147579
RightShoulder -21.134661 26.322925 -55.982123
RightArm 39.444072 40.951185 26.134747
RightForeArm 28.228635 0.000000 35.364028
RightHand 6.196919 -0.000000 3.597533
RightHandThumb1 -24.326973 -0.000000 -32.862282
LeftUpLeg 13.464720 -6.647630 -6.475491
LeftLeg -2.116480 -0.000000 0.000000
LeftFoot -16.568435 6.126245 -13.674816
LeftToeBase 5.415812 -0.000000 -0.000000
RightUpLeg -2.202547 -9.418945 16.084246
RightLeg 12.532785 -0.000000 -0.000000
RightFoot -9.772624 0.289134 -1.833133
RightToeBase -10.274236 -0.000000 0.000000
